<svg width="875" height="207" viewBox="0 0 875 207" fill="none" xmlns="http://www.w3.org/2000/svg">
<path d="M97 146.25L100.625 137.25H131.375L135 146.25H97ZM90 164.25L93.5 155.25H138.375L142.25 164.25H90ZM83 182.25L86.5 173.25H145.5L149.25 182.25H83ZM9.875 207H0.125L82 0H91.75L173.5 207H163.875L86.875 12.125L9.875 207ZM88 33.5L93.125 45L29.125 207H19.5L88 33.5ZM98 57.25L102.75 69.625L48.625 207H38.875L98 57.25ZM107.5 82L112.25 94.625L67.875 207H58.25L107.5 82ZM231.625 207H221.875L140.125 0H149.75L231.625 207ZM130.375 0L212.25 207H202.625L120.75 0H130.375ZM111 0L192.875 207H183.125L101.375 0H111ZM384.875 134.875C384.875 131.625 383.875 129.458 381.875 128.375C379.958 127.292 377.125 126.75 373.375 126.75H315.375V117.75H373.375C387.042 117.75 393.875 123.458 393.875 134.875C393.875 141.292 392 145.917 388.25 148.75C384.5 151.583 379.542 153 373.375 153H315.375V144H373.375C381.042 144 384.875 140.958 384.875 134.875ZM310.375 207H301.375V54H373.375C379.042 54 383.875 55.75 387.875 59.25C391.875 62.6667 393.875 66.9583 393.875 72.125C393.875 78.9583 392 83.9167 388.25 87C384.5 90 379.542 91.5 373.375 91.5H315.375V82.5H373.375C381.042 82.5 384.875 79.0417 384.875 72.125C384.875 69.2917 383.792 67.0833 381.625 65.5C379.458 63.8333 376.708 63 373.375 63H310.375V207ZM315.375 100.5H373.375C381.625 100.5 388.583 98.0417 394.25 93.125C400 88.125 402.875 81.125 402.875 72.125C402.875 64.875 399.875 58.5417 393.875 53.125C387.958 47.7083 381.125 45 373.375 45H292.375V207H283.375V36H373.375C383.625 36 392.583 39.625 400.25 46.875C408 54.0417 411.875 62.4583 411.875 72.125C411.875 79.7083 410.083 86.3333 406.5 92C403 97.6667 398.25 102.042 392.25 105.125C405.333 109.792 411.875 119.292 411.875 133.625C411.875 144.958 408.125 154.042 400.625 160.875C393.125 167.625 384.042 171 373.375 171H315.375V162H373.375C381.625 162 388.583 159.542 394.25 154.625C400 149.625 402.875 142.625 402.875 133.625C402.875 127.542 400.708 122.167 396.375 117.5C392.042 112.833 385.667 110.125 377.25 109.375C376.417 109.458 375.125 109.5 373.375 109.5H315.375V100.5ZM429.875 72.125C429.875 83.7917 425.75 94.3333 417.5 103.75C425.75 112.917 429.875 122.875 429.875 133.625C429.875 144.042 427.25 153.542 422 162.125C416.833 170.625 409.917 177.25 401.25 182C392.667 186.667 383.375 189 373.375 189H315.375V180H373.375C386.375 180 397.542 175.667 406.875 167C416.208 158.25 420.875 147.125 420.875 133.625C420.875 128.792 419.625 123.458 417.125 117.625C414.708 111.708 411.333 107.208 407 104.125C416.25 95.4583 420.875 84.7917 420.875 72.125C420.875 59.9583 416.125 49.4167 406.625 40.5C397.125 31.5 386.042 27 373.375 27H274.375V207H265.375V18H373.375C383.292 18 392.583 20.4583 401.25 25.375C410 30.2083 416.958 36.8333 422.125 45.25C427.292 53.5833 429.875 62.5417 429.875 72.125ZM427.75 104.25C435.167 94.3333 438.875 83.625 438.875 72.125C438.875 60.875 435.875 50.4167 429.875 40.75C423.958 31 415.958 23.2917 405.875 17.625C395.792 11.875 384.958 9 373.375 9H256.375V207H247.375V0H373.375C386.542 0 398.833 3.25 410.25 9.75C421.75 16.25 430.875 25.0833 437.625 36.25C444.458 47.3333 447.875 59.2917 447.875 72.125C447.875 84.375 444.417 95.125 437.5 104.375C444.417 113.958 447.875 123.708 447.875 133.625C447.875 144.792 445.875 155.042 441.875 164.375C437.875 173.625 432.458 181.333 425.625 187.5C418.875 193.667 411 198.458 402 201.875C393 205.292 383.458 207 373.375 207H315.375V198H373.375C382.125 198 390.5 196.375 398.5 193.125C406.5 189.792 413.458 185.292 419.375 179.625C425.292 173.958 430 167.125 433.5 159.125C437.083 151.125 438.875 142.625 438.875 133.625C438.875 129.625 437.917 124.833 436 119.25C434.167 113.583 431.417 108.583 427.75 104.25ZM605.625 134.875C605.625 131.625 604.625 129.458 602.625 128.375C600.708 127.292 597.875 126.75 594.125 126.75H536.125V117.75H594.125C607.792 117.75 614.625 123.458 614.625 134.875C614.625 141.292 612.75 145.917 609 148.75C605.25 151.583 600.292 153 594.125 153H536.125V144H594.125C601.792 144 605.625 140.958 605.625 134.875ZM531.125 207H522.125V54H594.125C599.792 54 604.625 55.75 608.625 59.25C612.625 62.6667 614.625 66.9583 614.625 72.125C614.625 78.9583 612.75 83.9167 609 87C605.25 90 600.292 91.5 594.125 91.5H536.125V82.5H594.125C601.792 82.5 605.625 79.0417 605.625 72.125C605.625 69.2917 604.542 67.0833 602.375 65.5C600.208 63.8333 597.458 63 594.125 63H531.125V207ZM536.125 100.5H594.125C602.375 100.5 609.333 98.0417 615 93.125C620.75 88.125 623.625 81.125 623.625 72.125C623.625 64.875 620.625 58.5417 614.625 53.125C608.708 47.7083 601.875 45 594.125 45H513.125V207H504.125V36H594.125C604.375 36 613.333 39.625 621 46.875C628.75 54.0417 632.625 62.4583 632.625 72.125C632.625 79.7083 630.833 86.3333 627.25 92C623.75 97.6667 619 102.042 613 105.125C626.083 109.792 632.625 119.292 632.625 133.625C632.625 144.958 628.875 154.042 621.375 160.875C613.875 167.625 604.792 171 594.125 171H536.125V162H594.125C602.375 162 609.333 159.542 615 154.625C620.75 149.625 623.625 142.625 623.625 133.625C623.625 127.542 621.458 122.167 617.125 117.5C612.792 112.833 606.417 110.125 598 109.375C597.167 109.458 595.875 109.5 594.125 109.5H536.125V100.5ZM650.625 72.125C650.625 83.7917 646.5 94.3333 638.25 103.75C646.5 112.917 650.625 122.875 650.625 133.625C650.625 144.042 648 153.542 642.75 162.125C637.583 170.625 630.667 177.25 622 182C613.417 186.667 604.125 189 594.125 189H536.125V180H594.125C607.125 180 618.292 175.667 627.625 167C636.958 158.25 641.625 147.125 641.625 133.625C641.625 128.792 640.375 123.458 637.875 117.625C635.458 111.708 632.083 107.208 627.75 104.125C637 95.4583 641.625 84.7917 641.625 72.125C641.625 59.9583 636.875 49.4167 627.375 40.5C617.875 31.5 606.792 27 594.125 27H495.125V207H486.125V18H594.125C604.042 18 613.333 20.4583 622 25.375C630.75 30.2083 637.708 36.8333 642.875 45.25C648.042 53.5833 650.625 62.5417 650.625 72.125ZM648.5 104.25C655.917 94.3333 659.625 83.625 659.625 72.125C659.625 60.875 656.625 50.4167 650.625 40.75C644.708 31 636.708 23.2917 626.625 17.625C616.542 11.875 605.708 9 594.125 9H477.125V207H468.125V0H594.125C607.292 0 619.583 3.25 631 9.75C642.5 16.25 651.625 25.0833 658.375 36.25C665.208 47.3333 668.625 59.2917 668.625 72.125C668.625 84.375 665.167 95.125 658.25 104.375C665.167 113.958 668.625 123.708 668.625 133.625C668.625 144.792 666.625 155.042 662.625 164.375C658.625 173.625 653.208 181.333 646.375 187.5C639.625 193.667 631.75 198.458 622.75 201.875C613.75 205.292 604.208 207 594.125 207H536.125V198H594.125C602.875 198 611.25 196.375 619.25 193.125C627.25 189.792 634.208 185.292 640.125 179.625C646.042 173.958 650.75 167.125 654.25 159.125C657.833 151.125 659.625 142.625 659.625 133.625C659.625 129.625 658.667 124.833 656.75 119.25C654.917 113.583 652.167 108.583 648.5 104.25ZM758.125 102.875L753.625 112.75L699.625 0H708.625L758.125 102.875ZM767.125 83.125L762.5 93L717.625 0H726.625L767.125 83.125ZM776.125 63.5L771.625 73.375L735.625 0H744.625L776.125 63.5ZM764.75 137.25L829.875 0H838.875L773.75 137.25V207H764.75V137.25ZM782.75 137.25L847.875 0H856.875L791.75 137.25V207H782.75V137.25ZM800.75 137.25L865.875 0H874.875L809.75 137.25V207H800.75V137.25ZM751.25 127.75L811.875 0H820.875L755.75 137.25V207H746.75V137.25L681.625 0H690.625L751.25 127.75Z" fill="#EEE"/>
</svg>
