<svg width="376" height="220" viewBox="0 0 376 220" fill="none" xmlns="http://www.w3.org/2000/svg">
<g clip-path="url(#clip0_174_527)">
<path d="M107.182 79.8999C107.182 84.4271 107.672 88.0979 108.53 90.7898C109.51 93.4817 110.735 96.4182 112.451 99.5996C113.064 100.578 113.309 101.557 113.309 102.414C113.309 103.637 112.574 104.861 110.98 106.085L103.26 111.224C102.157 111.958 101.054 112.325 100.074 112.325C98.8485 112.325 97.623 111.713 96.3976 110.612C94.6819 108.776 93.2114 106.819 91.9859 104.861C90.7605 102.781 89.535 100.456 88.1871 97.6418C78.6285 108.899 66.6191 114.527 52.1588 114.527C41.865 114.527 33.6545 111.591 27.6498 105.717C21.6451 99.8443 18.5815 92.0134 18.5815 82.2247C18.5815 71.8243 22.2578 63.3815 29.7331 57.0189C37.2083 50.6563 47.1345 47.475 59.7566 47.475C63.9231 47.475 68.2122 47.8421 72.7464 48.4538C77.2805 49.0656 81.9373 50.0445 86.8391 51.1457V42.2136C86.8391 32.9144 84.8783 26.4294 81.0794 22.6363C77.158 18.8432 70.5406 17.0078 61.1046 17.0078C56.8155 17.0078 52.4039 17.4972 47.8697 18.5984C43.3356 19.6997 38.9239 21.0456 34.6349 22.7586C32.6741 23.6151 31.2036 24.1046 30.3458 24.3493C29.488 24.594 28.8752 24.7164 28.3851 24.7164C26.6694 24.7164 25.8116 23.4928 25.8116 20.9232V14.9277C25.8116 12.97 26.0567 11.5017 26.6694 10.6452C27.2822 9.78865 28.3851 8.93215 30.1007 8.07564C34.3898 5.87319 39.5367 4.03782 45.5414 2.56952C51.5461 0.978865 57.9184 0.244716 64.6584 0.244716C79.2413 0.244716 89.9027 3.54839 96.7652 10.1557C103.505 16.7631 106.936 26.7964 106.936 40.2558V79.8999H107.182ZM57.4282 98.4983C61.4722 98.4983 65.6388 97.7642 70.0504 96.2959C74.462 94.8276 78.3834 92.1357 81.6922 88.465C83.6529 86.1402 85.1234 83.5706 85.8587 80.634C86.594 77.6974 87.0841 74.1491 87.0841 69.9889V64.8498C83.5303 63.9933 79.7314 63.2592 75.81 62.7697C71.8886 62.2803 68.0897 62.0356 64.2908 62.0356C56.0803 62.0356 50.0755 63.6263 46.0316 66.9299C41.9876 70.2336 40.0268 74.8832 40.0268 81.0011C40.0268 86.752 41.4974 91.0345 44.561 93.9711C47.5021 97.03 51.7912 98.4983 57.4282 98.4983ZM155.832 111.713C153.626 111.713 152.156 111.346 151.175 110.489C150.195 109.755 149.337 108.042 148.602 105.717L119.804 11.1346C119.068 8.68743 118.701 7.09677 118.701 6.24027C118.701 4.28254 119.681 3.18131 121.642 3.18131H133.651C135.98 3.18131 137.573 3.54839 138.431 4.40489C139.411 5.13904 140.146 6.85206 140.881 9.17686L161.469 90.178L180.586 9.17686C181.199 6.7297 181.934 5.13904 182.914 4.40489C183.895 3.67075 185.61 3.18131 187.816 3.18131H197.62C199.948 3.18131 201.541 3.54839 202.522 4.40489C203.502 5.13904 204.36 6.85206 204.85 9.17686L224.212 91.1568L245.412 9.17686C246.148 6.7297 247.005 5.13904 247.863 4.40489C248.844 3.67075 250.437 3.18131 252.643 3.18131H264.039C266 3.18131 267.103 4.16018 267.103 6.24027C267.103 6.85206 266.98 7.46385 266.858 8.198C266.735 8.93215 266.49 9.91101 266 11.257L236.467 105.84C235.731 108.287 234.873 109.878 233.893 110.612C232.913 111.346 231.32 111.835 229.236 111.835H218.698C216.369 111.835 214.776 111.468 213.796 110.612C212.815 109.755 211.958 108.165 211.467 105.717L192.473 26.7964L173.601 105.595C172.988 108.042 172.253 109.633 171.273 110.489C170.292 111.346 168.577 111.713 166.371 111.713H155.832ZM313.302 115.017C306.93 115.017 300.558 114.283 294.43 112.814C288.303 111.346 283.524 109.755 280.338 107.92C278.377 106.819 277.029 105.595 276.539 104.494C276.049 103.393 275.804 102.169 275.804 101.068V94.8276C275.804 92.2581 276.784 91.0345 278.622 91.0345C279.357 91.0345 280.093 91.1568 280.828 91.4016C281.563 91.6463 282.666 92.1357 283.891 92.6251C288.058 94.4605 292.592 95.9288 297.371 96.9077C302.273 97.8865 307.053 98.376 311.954 98.376C319.675 98.376 325.679 97.03 329.846 94.3382C334.012 91.6463 336.218 87.7308 336.218 82.7141C336.218 79.2881 335.115 76.4739 332.91 74.1491C330.704 71.8243 326.537 69.7442 320.532 67.7864L302.763 62.2803C293.818 59.4661 287.2 55.3059 283.156 49.7998C279.112 44.416 277.029 38.4205 277.029 32.0578C277.029 26.9188 278.132 22.3915 280.338 18.4761C282.543 14.5606 285.485 11.1346 289.161 8.44271C292.837 5.62848 297.004 3.54839 301.906 2.08009C306.807 0.611791 311.954 0 317.346 0C320.042 0 322.861 0.122358 325.557 0.489433C328.375 0.856507 330.949 1.34594 333.522 1.83537C335.973 2.44716 338.301 3.05895 340.507 3.7931C342.713 4.52725 344.429 5.2614 345.654 5.99555C347.37 6.97442 348.595 7.95328 349.331 9.05451C350.066 10.0334 350.433 11.3793 350.433 13.0923V18.8432C350.433 21.4127 349.453 22.7586 347.615 22.7586C346.635 22.7586 345.041 22.2692 342.958 21.2903C335.973 18.109 328.13 16.5184 319.43 16.5184C312.444 16.5184 306.93 17.6196 303.131 19.9444C299.332 22.2692 297.371 25.8176 297.371 30.8343C297.371 34.2603 298.597 37.1969 301.048 39.5217C303.499 41.8465 308.033 44.1713 314.528 46.2514L331.929 51.7575C340.752 54.5718 347.125 58.4872 350.924 63.5039C354.723 68.5206 356.561 74.2714 356.561 80.634C356.561 85.8954 355.458 90.6674 353.375 94.8276C351.169 98.9878 348.228 102.659 344.429 105.595C340.63 108.654 336.096 110.857 330.826 112.447C325.312 114.16 319.552 115.017 313.302 115.017Z" fill="#252F3E"/>
<path fill-rule="evenodd" clip-rule="evenodd" d="M336.463 174.483C296.146 204.216 237.569 220 187.203 220C116.617 220 53.0166 193.938 4.97896 150.623C1.18006 147.197 4.61132 142.547 9.14549 145.239C61.1046 175.339 125.196 193.571 191.493 193.571C236.221 193.571 285.362 184.272 330.581 165.184C337.321 162.125 343.081 169.589 336.463 174.483Z" fill="#FF9900"/>
<path fill-rule="evenodd" clip-rule="evenodd" d="M353.252 155.395C348.105 148.788 319.185 152.214 306.072 153.804C302.151 154.294 301.538 150.868 305.092 148.298C328.13 132.147 365.997 136.796 370.408 142.18C374.82 147.686 369.183 185.495 347.615 203.604C344.306 206.418 341.12 204.95 342.591 201.279C347.492 189.166 358.399 161.88 353.252 155.395Z" fill="#FF9900"/>
</g>
<defs>
<clipPath id="clip0_174_527">
<rect width="376" height="220" fill="white"/>
</clipPath>
</defs>
</svg>
