<svg width="366" height="366" viewBox="0 0 366 366" fill="none" xmlns="http://www.w3.org/2000/svg">
<path d="M344.452 0L315.051 329.362L182.894 366L51.1008 329.413L21.7313 0H344.452Z" fill="#264DE4"/>
<path d="M183.092 337.995L289.881 308.389L315.006 26.9343H183.092V337.995Z" fill="#2965F1"/>
<path d="M183.091 149.109H89.0602L92.6813 189.51H183.091V149.109Z" fill="#EBEBEB"/>
<path d="M183.092 67.3364H182.952H81.7844L85.4571 107.738H183.092V67.3364Z" fill="#EBEBEB"/>
<path d="M94.4865 209.711L100.147 273.147L182.906 296.122L183.092 296.07V254.036L182.914 254.083L137.919 241.933L135.043 209.711H113.179H94.4865Z" fill="#EBEBEB"/>
<path d="M232.701 189.51L228.012 241.908L182.952 254.07V296.102L265.777 273.147L266.384 266.321L275.878 159.958L276.864 149.109L284.157 67.3364H182.952V107.738H239.881L236.205 149.109H182.952V189.51H232.701Z" fill="white"/>
</svg>
