<svg width="257" height="186" viewBox="0 0 257 186" fill="none" xmlns="http://www.w3.org/2000/svg">
<g clip-path="url(#clip0_174_535)">
<path d="M251.216 70.9972C245.451 66.9973 232.24 65.4974 221.912 67.4973C220.711 57.4977 215.187 48.7481 205.579 40.9984L200.055 36.9985L196.211 42.7483C191.408 50.248 189.006 60.7476 189.726 70.7472C189.966 74.247 191.167 80.4968 194.77 85.9966C191.408 87.9965 184.442 90.4964 175.315 90.4964H1.65477L1.17438 92.4963C-0.506971 102.496 -0.506971 133.745 19.1889 157.744C34.0809 175.993 56.1787 185.243 85.2421 185.243C148.173 185.243 194.77 154.994 216.628 100.246C225.275 100.496 243.77 100.246 253.137 81.4967C253.377 80.9968 253.858 79.9968 255.539 76.247L256.5 74.247L251.216 70.9972ZM140.487 0.5H114.065V25.499H140.487V0.5ZM140.487 30.4988H114.065V55.4978H140.487V30.4988ZM109.261 30.4988H82.8401V55.4978H109.261V30.4988ZM78.0363 30.4988H51.615V55.4978H78.0363V30.4988ZM46.8111 60.4976H20.3899V85.4966H46.8111V60.4976ZM78.0363 60.4976H51.615V85.4966H78.0363V60.4976ZM109.261 60.4976H82.8401V85.4966H109.261V60.4976ZM140.487 60.4976H114.065V85.4966H140.487V60.4976ZM171.712 60.4976H145.29V85.4966H171.712V60.4976Z" fill="#2396ED"/>
</g>
<defs>
<clipPath id="clip0_174_535">
<rect width="256" height="185" fill="white" transform="translate(0.5 0.5)"/>
</clipPath>
</defs>
</svg>
