<svg width="65" height="65" viewBox="0 0 65 65" fill="none" xmlns="http://www.w3.org/2000/svg">
<g clip-path="url(#clip0_174_522)">
<path d="M64.5 50.09C62.172 50.682 60.732 50.116 59.44 48.176L50.252 35.464L48.924 33.704L38.194 48.218C36.968 49.964 35.682 50.724 33.394 50.106L47.134 31.662L34.342 15.002C36.542 14.574 38.062 14.792 39.412 16.762L48.942 29.632L58.542 16.832C59.772 15.086 61.094 14.422 63.302 15.066L58.342 21.642L51.622 30.392C50.822 31.392 50.932 32.076 51.668 33.042L64.5 50.09ZM0.516 31.354L1.64 25.826C4.7 14.886 17.24 10.34 25.888 17.1C30.942 21.076 32.198 26.7 31.948 33H3.46C3.032 44.34 11.194 51.184 21.6 47.692C25.25 46.466 27.4 43.608 28.476 40.032C29.022 38.24 29.926 37.96 31.61 38.472C30.75 42.944 28.81 46.68 24.71 49.018C18.584 52.518 9.84 51.386 5.24 46.522C2.5 43.7 1.368 40.124 0.86 36.3C0.78 35.668 0.62 35.066 0.5 34.46C0.510667 33.4253 0.516 32.3907 0.516 31.356V31.354ZM3.512 30.594H29.256C29.088 22.394 23.982 16.57 17.004 16.52C9.344 16.46 3.844 22.146 3.512 30.594Z" fill="white"/>
</g>
<defs>
<clipPath id="clip0_174_522">
<rect width="64" height="64" fill="white" transform="translate(0.5 0.5)"/>
</clipPath>
</defs>
</svg>
