<svg width="257" height="385" viewBox="0 0 257 385" fill="none" xmlns="http://www.w3.org/2000/svg">
<g clip-path="url(#clip0_174_515)">
<path d="M64.5 384.5C99.828 384.5 128.5 355.828 128.5 320.5V256.5H64.5C29.172 256.5 0.5 285.172 0.5 320.5C0.5 355.828 29.172 384.5 64.5 384.5Z" fill="#0ACF83"/>
<path d="M0.5 192.5C0.5 157.172 29.172 128.5 64.5 128.5H128.5V256.5H64.5C29.172 256.5 0.5 227.828 0.5 192.5Z" fill="#A259FF"/>
<path d="M0.5 64.5C0.5 29.172 29.172 0.5 64.5 0.5H128.5V128.5H64.5C29.172 128.5 0.5 99.828 0.5 64.5Z" fill="#F24E1E"/>
<path d="M128.5 0.5H192.5C227.828 0.5 256.5 29.172 256.5 64.5C256.5 99.828 227.828 128.5 192.5 128.5H128.5V0.5Z" fill="#FF7262"/>
<path d="M256.5 192.5C256.5 227.828 227.828 256.5 192.5 256.5C157.172 256.5 128.5 227.828 128.5 192.5C128.5 157.172 157.172 128.5 192.5 128.5C227.828 128.5 256.5 157.172 256.5 192.5Z" fill="#1ABCFE"/>
</g>
<defs>
<clipPath id="clip0_174_515">
<rect width="256" height="384" fill="white" transform="translate(0.5 0.5)"/>
</clipPath>
</defs>
</svg>
