<svg width="195" height="194" viewBox="0 0 195 194" fill="none" xmlns="http://www.w3.org/2000/svg">
<g clip-path="url(#clip0_174_524)">
<path d="M8.1249 8.32642H186.875V181.31H8.1249V8.32642Z" fill="#210B00"/>
<path d="M8.1249 8.3264H186.875V181.31H8.1249V8.3264ZM0 189.394H195V0.243164H0V189.394ZM127.725 67.6583C127.725 67.0118 127.969 66.6881 128.7 66.6881H141.456C142.106 66.6881 142.431 66.9306 142.431 67.6583V131.436C142.431 132.082 142.269 132.406 141.456 132.406H128.863C128.05 132.406 127.806 132.002 127.806 131.355V67.6583H127.725ZM126.831 49.309C126.831 44.1357 130.488 41.0641 135.119 41.0641C140.075 41.0641 143.407 44.3782 143.407 49.309C143.407 54.6439 139.913 57.5539 134.957 57.5539C130.244 57.5542 126.831 54.6439 126.831 49.309ZM90.2689 94.2526C87.9942 85.28 82.6318 65.7183 80.6001 56.2607H80.4376C78.7313 65.7183 74.4253 81.7231 71.0129 94.2526H90.2689ZM67.6814 107.348L61.2626 131.598C61.1001 132.244 60.8564 132.406 60.044 132.406H48.1002C47.2878 132.406 47.125 132.163 47.2878 131.193L70.3627 50.8446C70.7689 49.3898 71.0126 48.0963 71.1751 44.1357C71.1751 43.5699 71.4188 43.3275 71.825 43.3275H88.8875C89.4562 43.3275 89.6999 43.4891 89.8627 44.1357L115.7 131.355C115.863 132.001 115.7 132.406 115.05 132.406H101.562C100.913 132.406 100.506 132.244 100.344 131.679L93.6813 107.348H67.6814Z" fill="#FF7F18"/>
</g>
<defs>
<clipPath id="clip0_174_524">
<rect width="195" height="194" fill="white"/>
</clipPath>
</defs>
</svg>
