<svg width="240" height="240" viewBox="0 0 240 240" fill="none" xmlns="http://www.w3.org/2000/svg">
<g clip-path="url(#clip0_174_501)">
<path d="M0 0H240V240H0" fill="#F7DF1E"/>
<path d="M151.875 173.438C157.187 182.5 164.219 187.031 172.969 187.031C183.906 187.031 189.375 182.812 189.375 174.375C189.375 169.219 182.344 164.531 171.094 159.844C150.156 152.969 139.844 141.25 140.156 124.688C140.156 107.812 152.812 94.6875 172.969 94.6875C187.969 94.6875 198.594 100.781 204.844 112.969L187.5 124.219C183.75 117.344 178.906 114.062 172.969 114.375C166.094 114.688 162.5 117.969 162.188 124.219C162.188 130.781 166.406 133.594 180.469 139.688C200.625 147.656 211.875 156.562 211.875 175.781C210.938 196.094 198.594 206.562 174.844 207.188C155.156 207.188 141.25 199.531 133.125 184.219L151.875 173.438ZM72.1875 175.312C75.9375 181.406 78.2812 187.031 87.6562 187.031C95.1562 187.031 98.9062 182.344 98.9062 172.969V95.1562H121.406V172.031C121.094 194.219 109.844 205.469 87.6562 205.781C71.0938 205.469 59.8438 198.594 53.9062 185.156L72.1875 175.312Z" fill="black"/>
</g>
<defs>
<clipPath id="clip0_174_501">
<rect width="240" height="240" fill="white"/>
</clipPath>
</defs>
</svg>
