<svg width="386" height="376" viewBox="0 0 386 376" fill="none" xmlns="http://www.w3.org/2000/svg">
<g clip-path="url(#clip0_174_538)">
<path d="M16.0831 16.103H369.918V359.897H16.0831V16.103Z" fill="url(#paint0_radial_174_538)"/>
<path d="M16.0831 16.1032H369.918V359.897H16.0831V16.1032ZM0 375.963H386.001V0.0383301H0V375.963ZM225.971 158.28C225.971 156.352 225.971 151.693 225.167 142.696C225.167 141.411 225.489 141.09 226.454 140.608C236.265 136.592 259.586 129.523 285.64 129.523C286.927 129.523 287.571 129.844 287.571 131.129V154.263C287.571 155.548 287.088 155.87 285.64 155.87C275.508 155.388 260.55 156.673 254.921 159.082V260.454C254.921 261.739 254.439 262.381 252.991 262.381H227.74C226.454 262.381 225.81 261.899 225.81 260.454V158.279L225.971 158.28ZM106.955 262.381C105.024 262.381 104.542 261.579 104.542 259.972V87.2718C104.542 85.9868 105.025 85.183 106.472 85.183H131.883C133.17 85.183 133.491 85.6649 133.491 87.1112V235.874H199.754C201.041 235.874 201.524 236.356 201.202 237.802L197.181 260.615C196.86 261.899 196.056 262.543 194.769 262.543H106.955V262.381Z" fill="#AAD1EB"/>
</g>
<defs>
<radialGradient id="paint0_radial_174_538" cx="0" cy="0" r="1" gradientUnits="userSpaceOnUse" gradientTransform="translate(132.619 93.1475) scale(268.914 260.062)">
<stop stop-color="#39464D" stop-opacity="0.98"/>
<stop offset="1" stop-color="#05151F"/>
</radialGradient>
<clipPath id="clip0_174_538">
<rect width="386" height="376" fill="white"/>
</clipPath>
</defs>
</svg>
