<svg width="395" height="80" viewBox="0 0 395 80" fill="none" xmlns="http://www.w3.org/2000/svg">
<g clip-path="url(#clip0_281_299)">
<path d="M262.5 0H331V12.7H303.8V79.3H290.2V12.7H262.5V0ZM149.5 0V12.7H94.5V33.1H138.8V45.7H94.5V66.7H149.5V79.3H81V0H149.7H149.5ZM183.8 0H166L229.8 79.4H247.7L215.7 39.7L247.7 0.1H229.8L206.8 28.7L183.8 0.1V0ZM202.1 56.7L193.1 45.7L166 79.4H183.8L202.1 56.7Z" fill="white"/>
<path fill-rule="evenodd" clip-rule="evenodd" d="M81.5 79.3L17.5 0H0.5V79.3H14.1V17L64.3 79.3H81.5Z" fill="white"/>
<path d="M334.1 78.9C333.1 78.9 332.3 78.5 331.6 77.9C330.8 77.1 330.5 76.3 330.5 75.3C330.5 74.3 330.8 73.5 331.5 72.8C332.3 72.1 333.1 71.8 334.1 71.8C335.1 71.8 335.9 72.1 336.6 72.8C337.186 73.3344 337.566 74.0566 337.676 74.8418C337.785 75.6269 337.617 76.4257 337.2 77.1C336.887 77.6242 336.45 78.0629 335.926 78.377C335.403 78.691 334.81 78.8707 334.2 78.9H334.1ZM357.3 45.4H363.3V68.7C363.3 70.8 362.9 72.7 362 74.2C361.098 75.7093 359.778 76.9249 358.2 77.7C356.6 78.5 354.7 79 352.5 79C350.5 79 348.8 78.6 347.2 78C345.68 77.3189 344.393 76.2062 343.5 74.8C342.6 73.5 342.1 71.8 342.1 69.8H348.1C348.2 70.6 348.4 71.4 348.8 72C349.2 72.7 349.8 73.2 350.4 73.5C351.1 73.9 351.9 74 352.8 74C353.8 74 354.6 73.8 355.2 73.4C355.906 72.9786 356.464 72.3501 356.8 71.6C357.1 70.8 357.3 69.8 357.3 68.6V45.5V45.4ZM388.2 54.5C388.139 53.8341 387.928 53.1909 387.581 52.6191C387.235 52.0473 386.762 51.5619 386.2 51.2C384.91 50.4079 383.411 50.0244 381.9 50.1C380.6 50.1 379.5 50.3 378.6 50.6C377.7 51 377 51.6 376.6 52.2C376.146 52.7556 375.874 53.4373 375.82 54.1528C375.766 54.8682 375.934 55.5829 376.3 56.2C376.6 56.7 377 57.1 377.6 57.4L379.4 58.4L381.5 58.9L384.6 59.7C385.9 60 387.1 60.4 388.3 60.9C389.446 61.3456 390.524 61.9516 391.5 62.7C392.465 63.4811 393.237 64.4736 393.757 65.6006C394.277 66.7276 394.531 67.9591 394.5 69.2C394.5 71.2 394 72.9 393 74.3C391.898 75.8634 390.371 77.0781 388.6 77.8C386.8 78.6 384.5 79 381.8 79C379.2 79 376.9 78.6 375 77.8C373 77 371.6 75.8 370.5 74.3C369.388 72.6446 368.796 70.6944 368.8 68.7H374.8C374.835 69.7348 375.191 70.733 375.818 71.557C376.445 72.381 377.312 72.99 378.3 73.3C379.3 73.7 380.5 73.9 381.7 73.9C383 73.9 384.2 73.7 385.2 73.3C386.2 72.9 387 72.3 387.6 71.6C388.119 70.9076 388.4 70.0655 388.4 69.2C388.4 68.3 388.2 67.6 387.7 67C387.056 66.4543 386.351 65.9845 385.6 65.6L382.4 64.6L378.6 63.6C375.8 62.9 373.6 61.9 372 60.4C371.202 59.6879 370.572 58.8068 370.157 57.8208C369.742 56.8348 369.551 55.7687 369.6 54.7C369.584 52.889 370.184 51.1262 371.3 49.7C372.375 48.1514 373.865 46.9381 375.6 46.2C377.6 45.4 379.6 45 382 45C384.3 45 386.4 45.4 388.2 46.2C390 47 391.4 48.2 392.5 49.6C393.5 51 394 52.6 394 54.6H388.2V54.5Z" fill="white"/>
</g>
<defs>
<clipPath id="clip0_281_299">
<rect width="394" height="80" fill="white" transform="translate(0.5)"/>
</clipPath>
</defs>
</svg>
