<svg version="1.2" xmlns="http://www.w3.org/2000/svg" viewBox="-200 -200 1985 1332">
	<title>Nielsen_2021-svg</title>
	<style>
		.s0 { fill: #6e37fa } 
		.s1 { fill: #f40953 } 
		.s2 { fill: #ff9408 } 
		.s3 { fill: #32bbb9 } 
	</style>
	<g id="Layer_2">
		<g id="Layer_1-2">
			<path id="Layer" class="s0" d="m1188.8 147.9c6.6-11.9 21-15.8 32.9-9.2l350.9 202.9c3.9 2.6 7.2 5.2 9.2 9.2 6.6 11.2 2.6 26.3-9.2 32.9l-350.9 202.9c-3.3 2-7.9 3.3-11.9 3.3-13.1 0-24.3-11.2-24.3-24.4v-405.7c0-4 0.7-7.9 3.3-11.9z"/>
			<path id="Layer" class="s1" d="m396.9 783.6c-6.5 11.9-21 15.8-32.8 9.2l-351-202.9c-3.2-2-6.5-4.6-8.5-8.5-7.2-11.9-3.3-27.1 8.5-33.6l350.3-202.9c4-2 7.9-3.3 12.5-3.3 13.8 0 24.3 11.2 24.3 24.3v405.8c0 4-1.3 8.6-3.3 11.9z"/>
			<path id="Layer" class="s2" d="m596.7 490.5c6.6-11.9 21-15.9 32.9-9.3l350.2 202.9c3.3 2 6.6 4.6 8.6 8.6 7.2 11.2 3.3 26.3-8.6 32.9l-350.2 202.9c-3.3 2-7.9 3.3-11.9 3.3-13.1 0-24.3-11.2-24.3-24.4v-405.7c0-4 1.3-8 3.3-11.2z"/>
			<path id="Layer" class="s3" d="m990.3 442.4c-6.5 11.2-21 15.1-32.8 8.5l-350.9-202.9c-3.3-1.9-6.6-4.6-8.6-8.5-7.2-11.2-3.3-26.4 8.6-33l350.9-202.9c3.3-1.9 7.9-3.3 11.8-3.3 13.2 0 24.3 11.2 24.3 24.4v405.8c0 4.6-0.6 8.6-3.3 11.9z"/>
		</g>
	</g>
</svg>