<svg width="248" height="248" viewBox="0 0 248 248" fill="none" xmlns="http://www.w3.org/2000/svg">
<g clip-path="url(#clip0_174_541)">
<path d="M10.3333 10.644H237.667V231.778H10.3333V10.644Z" fill="#001D26"/>
<path d="M10.3332 10.6442H237.667V231.778H10.3332V10.6442ZM0 242.112H248V0.311035H0V242.112ZM167.194 99.5112C159.03 99.5112 156.241 103.644 156.241 107.054C156.241 110.774 158.1 113.358 169.054 119.041C185.277 126.895 190.341 134.438 190.341 145.495C190.341 162.028 177.734 170.915 160.684 170.915C151.694 170.915 143.943 169.054 139.5 166.471C138.777 166.162 138.674 165.645 138.674 164.818V149.628C138.674 148.595 139.19 148.284 139.914 148.801C146.424 153.038 153.864 154.898 160.684 154.898C168.847 154.898 172.257 151.488 172.257 146.838C172.257 143.118 169.88 139.811 159.443 134.438C144.77 127.411 138.674 120.281 138.674 108.398C138.674 95.0676 149.111 84.0112 167.194 84.0112C176.08 84.0112 182.28 85.3548 185.69 86.9045C186.517 87.4211 186.724 88.2477 186.724 88.9709V103.127C186.724 103.954 186.207 104.471 185.173 104.161C180.627 101.268 173.91 99.5112 167.194 99.5112ZM78.3267 111.808C80.7035 112.015 82.5636 112.015 86.6968 112.015C98.7873 112.015 110.154 107.778 110.154 91.3481C110.154 78.2249 101.99 71.6112 88.247 71.6112C84.1138 71.6112 80.1869 71.8178 78.3267 71.9211V111.808ZM59.9337 56.9377C59.9337 56.2145 61.3806 55.6974 62.2067 55.6974C68.8204 55.3875 78.6371 55.1808 88.867 55.1808C117.49 55.1808 128.65 70.8875 128.65 90.9344C128.65 117.181 109.637 128.444 86.2835 128.444C82.357 128.444 81.0138 128.238 78.2234 128.238V167.918C78.2234 168.745 77.9134 169.158 76.9835 169.158H61.1735C60.347 169.158 59.9333 168.848 59.9333 167.918L59.9337 56.9377Z" fill="#31C5F0"/>
</g>
<defs>
<clipPath id="clip0_174_541">
<rect width="248" height="248" fill="white"/>
</clipPath>
</defs>
</svg>
