<svg width="257" height="257" viewBox="0 0 257 257" fill="none" xmlns="http://www.w3.org/2000/svg">
<g clip-path="url(#clip0_243_33)">
<path d="M255.453 144.753C264.412 74.6217 214.884 10.5053 144.881 1.54688C74.8777 -7.4115 10.5053 42.1156 1.54688 112.119C-7.4115 182.122 42.1156 246.367 112.119 255.453C182.25 264.412 246.367 214.884 255.453 144.753Z" fill="#FF6C37"/>
<path d="M174.7 82.6843L120.693 136.691L105.464 121.461C158.575 68.3509 163.822 72.958 174.7 82.6843Z" fill="white"/>
<path d="M120.693 137.97C120.309 137.97 120.054 137.842 119.798 137.586L104.44 122.357C103.928 121.845 103.928 121.077 104.44 120.565C158.447 66.5592 164.078 71.6782 175.468 81.9164C175.723 82.1724 175.851 82.4283 175.851 82.8122C175.851 83.1962 175.723 83.4521 175.468 83.7081L121.461 137.586C121.333 137.842 120.949 137.97 120.693 137.97ZM107.256 121.461L120.693 134.899L172.78 82.8122C163.31 74.3658 156.911 71.8062 107.256 121.461Z" fill="#FF6C37"/>
<path d="M136.179 152.176L121.461 137.458L175.467 83.4521C189.929 98.0415 168.301 121.717 136.179 152.176Z" fill="white"/>
<path d="M136.178 153.456C135.795 153.456 135.539 153.328 135.283 153.072L120.565 138.354C120.309 138.098 120.309 137.842 120.309 137.458C120.309 137.074 120.437 136.819 120.693 136.563L174.7 82.5563C175.211 82.0444 175.979 82.0444 176.491 82.5563C179.819 85.6277 181.61 89.979 181.482 94.4581C181.226 108.664 165.101 126.708 137.202 153.072C136.818 153.328 136.434 153.456 136.178 153.456ZM123.253 137.458C131.443 145.777 134.899 149.104 136.178 150.384C157.679 129.908 178.539 108.92 178.667 94.4581C178.795 91.1307 177.515 87.8033 175.339 85.2438L123.253 137.458Z" fill="#FF6C37"/>
<path d="M105.72 121.845L116.598 132.723C116.854 132.979 116.854 133.235 116.598 133.491C116.47 133.619 116.47 133.619 116.342 133.619L93.8181 138.482C92.6663 138.61 91.6425 137.842 91.3866 136.691C91.2586 136.051 91.5145 135.411 91.8985 135.027L104.952 121.973C105.208 121.717 105.592 121.589 105.72 121.845Z" fill="white"/>
<path d="M93.4343 139.762C91.5147 139.762 90.1069 138.226 90.1069 136.307C90.1069 135.411 90.4909 134.515 91.1307 133.875L104.184 120.821C104.952 120.182 105.976 120.182 106.744 120.821L117.622 131.699C118.39 132.339 118.39 133.491 117.622 134.259C117.366 134.515 117.11 134.643 116.726 134.771L94.2022 139.634C93.9462 139.634 93.6903 139.762 93.4343 139.762ZM105.336 123.253L92.7944 135.795C92.5385 136.051 92.4105 136.435 92.6665 136.819C92.7945 137.202 93.1784 137.33 93.5623 137.202L114.679 132.595L105.336 123.253Z" fill="#FF6C37"/>
<path d="M203.238 52.7377C195.048 44.8031 181.866 45.059 173.932 53.3775C165.997 61.696 166.253 74.7497 174.572 82.6843C181.354 89.2111 191.593 90.3629 199.655 85.4998L185.066 70.9104L203.238 52.7377Z" fill="white"/>
<path d="M188.905 89.723C176.747 89.723 166.893 79.8688 166.893 67.711C166.893 55.5532 176.747 45.6989 188.905 45.6989C194.536 45.6989 200.039 47.8745 204.134 51.8418C204.39 52.0978 204.518 52.3537 204.518 52.7377C204.518 53.1216 204.39 53.3775 204.134 53.6335L186.857 70.9104L200.423 84.4759C200.935 84.9878 200.935 85.7557 200.423 86.2676C200.295 86.3956 200.295 86.3956 200.167 86.5236C196.84 88.5712 192.872 89.723 188.905 89.723ZM188.905 48.3864C178.155 48.3864 169.453 57.0889 169.581 67.8389C169.581 78.589 178.283 87.2914 189.033 87.1635C191.977 87.1635 194.92 86.5236 197.608 85.1158L184.17 71.8062C183.914 71.5503 183.786 71.2943 183.786 70.9104C183.786 70.5265 183.914 70.2705 184.17 70.0145L201.319 52.8656C197.863 49.9222 193.512 48.3864 188.905 48.3864Z" fill="#FF6C37"/>
<path d="M203.622 53.1216L203.366 52.8656L185.066 70.9104L199.527 85.3718C200.935 84.4759 202.343 83.4521 203.494 82.3003C211.685 74.2378 211.685 61.1841 203.622 53.1216Z" fill="white"/>
<path d="M199.655 86.7795C199.271 86.7795 199.015 86.6516 198.759 86.3956L184.17 71.8062C183.914 71.5503 183.786 71.2943 183.786 70.9104C183.786 70.5265 183.914 70.2705 184.17 70.0145L202.343 51.8418C202.854 51.3299 203.622 51.3299 204.134 51.8418L204.518 52.0978C213.093 60.6722 213.093 74.4937 204.646 83.1962C203.366 84.4759 201.959 85.6277 200.423 86.5236C200.039 86.6516 199.783 86.7795 199.655 86.7795ZM186.857 70.9104L199.783 83.8361C200.807 83.1962 201.831 82.3003 202.598 81.5325C209.893 74.2378 210.277 62.3359 203.238 54.6573L186.857 70.9104Z" fill="#FF6C37"/>
<path d="M176.875 84.9878C173.804 81.9164 168.813 81.9164 165.741 84.9878L117.494 133.235L125.556 141.298L176.619 96.5058C179.947 93.6903 180.203 88.6992 177.387 85.3718C177.131 85.2438 177.003 85.1158 176.875 84.9878Z" fill="white"/>
<path d="M125.429 142.577C125.045 142.577 124.789 142.449 124.533 142.194L116.47 134.131C115.958 133.619 115.958 132.851 116.47 132.339L164.717 84.092C168.301 80.5087 174.06 80.5087 177.643 84.092C181.226 87.6754 181.226 93.4343 177.643 97.0177C177.515 97.1457 177.387 97.2736 177.259 97.4016L126.196 142.194C126.068 142.449 125.812 142.577 125.429 142.577ZM119.286 133.235L125.556 139.506L175.723 95.482C178.539 93.1784 178.795 88.9551 176.491 86.1396C174.188 83.3241 169.964 83.0682 167.149 85.3718C167.021 85.4998 166.893 85.6277 166.637 85.7557L119.286 133.235Z" fill="#FF6C37"/>
<path d="M80.5085 188.137C79.9966 188.393 79.7406 188.905 79.8686 189.417L82.0442 198.631C82.5561 199.911 81.7883 201.447 80.3805 201.831C79.3567 202.215 78.2049 201.831 77.565 201.063L63.4875 187.113L109.431 141.17L125.3 141.426L136.05 152.176C133.491 154.351 118.006 169.325 80.5085 188.137Z" fill="white"/>
<path d="M79.4848 203.111C78.461 203.111 77.4372 202.727 76.7973 201.959L62.8478 188.009C62.5918 187.753 62.4639 187.497 62.4639 187.113C62.4639 186.73 62.5918 186.474 62.8478 186.218L108.792 140.274C109.047 140.018 109.431 139.89 109.687 139.89L125.556 140.146C125.94 140.146 126.196 140.274 126.452 140.53L137.202 151.28C137.458 151.536 137.586 151.92 137.586 152.304C137.586 152.688 137.458 152.944 137.074 153.2L136.179 153.967C122.613 165.869 104.184 177.771 81.2765 189.161L83.4521 198.247C83.836 199.911 83.0682 201.703 81.5324 202.599C80.7646 202.983 80.1247 203.111 79.4848 203.111ZM65.4073 187.113L78.589 200.167C78.9729 200.807 79.7408 201.063 80.3806 200.679C81.0205 200.295 81.2765 199.527 80.8925 198.887L78.7169 189.673C78.461 188.521 78.9729 187.497 79.9967 186.985C102.649 175.596 120.949 163.822 134.387 152.176L124.917 142.705L110.199 142.449L65.4073 187.113Z" fill="#FF6C37"/>
<path d="M52.6096 198.119L63.6156 187.113L79.9966 203.494L53.8893 201.703C52.7375 201.575 51.9697 200.551 52.0976 199.399C52.0976 198.887 52.2256 198.375 52.6096 198.119Z" fill="white"/>
<path d="M79.9967 204.646L53.7614 202.855C51.8417 202.727 50.562 201.063 50.69 199.143C50.8179 198.375 51.0739 197.608 51.7138 197.096L62.7198 186.09C63.2317 185.578 63.9996 185.578 64.5115 186.09L80.8925 202.471C81.2764 202.855 81.4044 203.367 81.1485 203.878C80.8925 204.39 80.5086 204.646 79.9967 204.646ZM63.6156 188.905L53.5054 199.015C53.1215 199.271 53.1215 199.911 53.5054 200.167C53.6334 200.295 53.7614 200.423 54.0174 200.423L76.6693 201.959L63.6156 188.905Z" fill="#FF6C37"/>
<path d="M104.952 147.057C104.184 147.057 103.672 146.417 103.672 145.777C103.672 145.393 103.8 145.137 104.056 144.881L116.47 132.467C116.982 131.955 117.75 131.955 118.262 132.467L126.324 140.53C126.708 140.914 126.836 141.298 126.708 141.81C126.58 142.194 126.196 142.577 125.684 142.705L105.208 147.057C105.08 147.057 104.952 147.057 104.952 147.057ZM117.366 135.155L108.919 143.601L122.741 140.658L117.366 135.155Z" fill="#FF6C37"/>
<path d="M125.3 141.426L111.223 144.497C110.199 144.753 109.175 144.113 108.919 143.089C108.791 142.449 108.919 141.81 109.431 141.298L117.238 133.491L125.3 141.426Z" fill="white"/>
<path d="M110.967 145.777C109.175 145.777 107.768 144.369 107.768 142.577C107.768 141.682 108.152 140.914 108.663 140.274L116.47 132.467C116.982 131.955 117.75 131.955 118.262 132.467L126.324 140.53C126.708 140.914 126.836 141.298 126.708 141.81C126.58 142.194 126.196 142.577 125.684 142.705L111.607 145.777C111.351 145.777 111.095 145.777 110.967 145.777ZM117.366 135.155L110.455 142.066C110.199 142.322 110.199 142.577 110.327 142.833C110.455 143.089 110.711 143.217 111.095 143.217L122.869 140.658L117.366 135.155Z" fill="#FF6C37"/>
<path d="M203.75 65.4074C203.494 64.6395 202.599 64.2556 201.831 64.5115C201.063 64.7675 200.679 65.6633 200.935 66.4312C200.935 66.5592 201.063 66.6871 201.063 66.8151C201.831 68.3508 201.575 70.2705 200.551 71.6782C200.039 72.3181 200.167 73.214 200.679 73.7259C201.319 74.2378 202.215 74.1098 202.727 73.4699C204.646 71.0384 205.03 67.9669 203.75 65.4074Z" fill="#FF6C37"/>
</g>
<defs>
<clipPath id="clip0_243_33">
<rect width="256" height="256" fill="white" transform="translate(0.5 0.5)"/>
</clipPath>
</defs>
</svg>
