<svg width="257" height="229" viewBox="0 0 257 229" fill="none" xmlns="http://www.w3.org/2000/svg">
<g clip-path="url(#clip0_174_512)">
<path d="M210.983 74.3236C208.328 73.4096 205.576 72.5447 202.742 71.7267C203.208 69.8261 203.636 67.9501 204.016 66.106C210.254 35.8249 206.175 11.4302 192.247 3.39849C178.892 -4.3029 157.051 3.72704 134.993 22.9238C132.872 24.7697 130.745 26.7241 128.618 28.7724C127.202 27.4172 125.787 26.1076 124.377 24.8549C101.259 4.32853 78.0867 -4.32158 64.1726 3.73341C50.8304 11.4571 46.8792 34.3904 52.4945 63.088C53.0368 65.8599 53.6706 68.6906 54.3874 71.5686C51.1079 72.4996 47.9419 73.492 44.9125 74.5478C17.8093 83.9972 0.5 98.8067 0.5 114.168C0.5 130.033 19.0816 145.946 47.3117 155.595C49.5395 156.357 51.8511 157.077 54.2334 157.76C53.4601 160.873 52.7875 163.923 52.2229 166.898C46.8687 195.098 51.05 217.489 64.3567 225.164C78.1013 233.09 101.169 224.943 123.63 205.309C125.406 203.757 127.187 202.111 128.972 200.386C131.286 202.614 133.595 204.722 135.893 206.7C157.65 225.422 179.138 232.982 192.432 225.286C206.163 217.337 210.626 193.283 204.832 164.018C204.39 161.783 203.875 159.5 203.297 157.176C204.916 156.697 206.507 156.202 208.057 155.688C237.405 145.965 256.5 130.245 256.5 114.168C256.5 98.7511 238.632 83.8418 210.983 74.3236ZM204.618 145.308C203.218 145.771 201.782 146.219 200.318 146.653C197.078 136.396 192.706 125.49 187.355 114.221C192.461 103.221 196.665 92.4541 199.814 82.2638C202.433 83.0216 204.974 83.8208 207.424 84.6643C231.113 92.8195 245.564 104.877 245.564 114.168C245.564 124.064 229.958 136.911 204.618 145.308ZM194.104 166.142C196.666 179.083 197.031 190.783 195.335 199.929C193.81 208.148 190.744 213.627 186.952 215.822C178.885 220.491 161.632 214.421 143.025 198.41C140.892 196.574 138.744 194.615 136.588 192.54C143.802 184.651 151.011 175.48 158.047 165.294C170.423 164.196 182.115 162.4 192.718 159.949C193.24 162.056 193.704 164.122 194.104 166.142ZM87.7762 215.015C79.8939 217.798 73.616 217.878 69.8212 215.69C61.7461 211.033 58.3891 193.054 62.9682 168.938C63.4927 166.176 64.117 163.339 64.8365 160.439C75.3235 162.758 86.93 164.427 99.3353 165.433C106.419 175.4 113.836 184.561 121.311 192.583C119.678 194.159 118.051 195.66 116.434 197.075C106.501 205.757 96.548 211.917 87.7762 215.015ZM50.8486 145.247C38.3658 140.98 28.057 135.435 20.9909 129.384C14.6415 123.947 11.4358 118.548 11.4358 114.168C11.4358 104.846 25.3335 92.9562 48.5124 84.8748C51.3248 83.8942 54.2689 82.9701 57.3242 82.102C60.5276 92.5224 64.7299 103.417 69.8011 114.434C64.6643 125.615 60.4023 136.683 57.1675 147.226C54.9893 146.599 52.8791 145.941 50.8486 145.247ZM63.2271 60.9878C58.416 36.4004 61.6112 17.8526 69.6516 13.1983C78.2161 8.24006 97.1545 15.3094 117.115 33.033C118.391 34.1658 119.672 35.3514 120.956 36.5781C113.518 44.5648 106.169 53.6573 99.148 63.5656C87.1082 64.6815 75.5832 66.4742 64.9869 68.8747C64.3207 66.1948 63.7306 63.5619 63.2271 60.9878ZM173.654 88.255C171.121 83.8796 168.52 79.6077 165.869 75.4523C174.037 76.4849 181.863 77.8556 189.212 79.5329C187.006 86.6041 184.256 93.9975 181.019 101.577C178.696 97.1681 176.24 92.7229 173.654 88.255ZM128.622 44.3939C133.666 49.8588 138.718 55.9603 143.687 62.5804C138.68 62.3439 133.611 62.2209 128.5 62.2209C123.437 62.2209 118.406 62.3412 113.43 62.5736C118.404 56.015 123.499 49.9217 128.622 44.3939ZM83.3019 88.3307C80.7715 92.7184 78.361 97.1394 76.0753 101.569C72.8906 94.0157 70.1661 86.5886 67.9406 79.4172C75.2446 77.7827 83.0335 76.4462 91.1496 75.4332C88.4611 79.6268 85.8391 83.9311 83.3019 88.3307ZM91.3833 153.683C82.998 152.747 75.092 151.48 67.7898 149.89C70.0508 142.591 72.8355 135.005 76.0876 127.29C78.3792 131.716 80.7993 136.138 83.3452 140.536C85.9384 145.015 88.6256 149.404 91.3833 153.683ZM128.925 184.713C123.741 179.121 118.571 172.934 113.522 166.28C118.424 166.472 123.421 166.571 128.5 166.571C133.718 166.571 138.876 166.453 143.953 166.227C138.968 173.001 133.935 179.197 128.925 184.713ZM181.123 126.896C184.545 134.695 187.429 142.241 189.719 149.416C182.297 151.11 174.283 152.474 165.839 153.487C168.497 149.276 171.12 144.93 173.698 140.461C176.305 135.938 178.782 131.409 181.123 126.896ZM164.225 134.997C160.223 141.936 156.114 148.559 151.944 154.812C144.347 155.355 136.499 155.635 128.5 155.635C120.533 155.635 112.784 155.387 105.322 154.903C100.983 148.568 96.7854 141.925 92.8091 135.057C88.8434 128.207 85.1943 121.299 81.887 114.43C85.1934 107.546 88.8338 100.63 92.7768 93.7929L92.7759 93.7942C96.7293 86.9386 100.89 80.3276 105.189 74.0329C112.802 73.4574 120.61 73.1571 128.5 73.1571C136.425 73.1571 144.243 73.4597 151.854 74.0402C156.087 80.2889 160.22 86.8784 164.189 93.735C168.203 100.669 171.89 107.538 175.225 114.275C171.9 121.128 168.221 128.067 164.225 134.997ZM186.785 12.8729C195.357 17.8166 198.691 37.7542 193.305 63.8987C192.961 65.5669 192.575 67.2661 192.154 68.9881C181.533 66.5375 170 64.7139 157.925 63.5811C150.891 53.5639 143.602 44.4572 136.285 36.5731C138.252 34.6807 140.216 32.8762 142.173 31.1733C161.072 14.7257 178.737 8.23185 186.785 12.8729ZM128.5 91.3081C141.125 91.3081 151.36 101.543 151.36 114.168C151.36 126.793 141.125 137.028 128.5 137.028C115.875 137.028 105.64 126.793 105.64 114.168C105.64 101.543 115.875 91.3081 128.5 91.3081Z" fill="#00D8FF"/>
</g>
<defs>
<clipPath id="clip0_174_512">
<rect width="256" height="228" fill="white" transform="translate(0.5 0.5)"/>
</clipPath>
</defs>
</svg>
