<svg width="257" height="193" viewBox="0 0 257 193" fill="none" xmlns="http://www.w3.org/2000/svg">
<g clip-path="url(#clip0_174_532)">
<path d="M221.152 111.416C212.246 111.463 204.505 113.608 198.024 116.779C195.646 112.069 193.267 107.872 192.848 104.795C192.382 101.204 191.822 99.0125 192.382 94.7225C192.941 90.4325 195.459 84.3239 195.412 83.8576C195.366 83.3913 194.853 81.1997 189.724 81.1531C184.594 81.1065 180.164 82.1323 179.651 83.4846C179.139 84.8369 178.159 87.9145 177.506 91.0853C176.62 95.7483 167.248 112.395 161.885 121.115C160.16 117.711 158.668 114.727 158.341 112.349C157.875 108.758 157.316 106.567 157.875 102.277C158.435 97.9866 160.953 91.878 160.906 91.4117C160.859 90.9454 160.347 88.7538 155.217 88.7072C150.088 88.6605 145.658 89.6864 145.145 91.0387C144.632 92.391 144.073 95.5618 143 98.6394C141.928 101.717 129.477 129.509 126.213 136.69C124.535 140.373 123.089 143.311 122.063 145.316C122.063 145.316 122.016 145.456 121.877 145.689C120.991 147.415 120.478 148.347 120.478 148.347C120.478 148.347 120.478 148.347 120.478 148.394C119.778 149.653 119.032 150.819 118.659 150.819C118.379 150.819 117.866 147.461 118.752 142.892C120.618 133.239 125.047 118.224 125.001 117.711C125.001 117.431 125.84 114.82 122.11 113.468C118.473 112.116 117.167 114.354 116.841 114.354C116.514 114.354 116.281 115.147 116.281 115.147C116.281 115.147 120.338 98.2664 108.54 98.2664C101.173 98.2664 91.0074 106.333 85.9713 113.608C82.8004 115.333 76.0391 119.017 68.8114 122.98C66.0602 124.519 63.2157 126.058 60.5578 127.504C60.3713 127.317 60.1848 127.084 59.9983 126.897C45.7294 111.649 19.3367 100.878 20.4558 80.407C20.8755 72.9462 23.4402 53.3615 71.1429 29.58C110.406 10.2285 141.648 15.591 147.057 27.4817C154.798 44.4551 130.317 75.9771 89.7483 80.5469C74.2671 82.2722 66.1535 76.3035 64.1017 74.0653C61.9567 71.7338 61.6303 71.5939 60.8376 72.0602C59.532 72.7596 60.3713 74.858 60.8376 76.0704C62.05 79.2412 67.0394 84.8369 75.4795 87.5881C82.9403 90.0128 101.079 91.3651 123.042 82.8784C147.616 73.3658 166.828 46.9265 161.186 24.7771C155.544 2.30135 118.239 -5.11286 82.9403 7.43068C61.9567 14.8915 39.2012 26.6423 22.834 41.937C3.38915 60.1228 0.311556 75.9305 1.57057 82.552C6.09371 106.054 38.5017 121.348 51.4649 132.679C50.8121 133.053 50.2059 133.379 49.693 133.659C43.2114 136.876 18.4973 149.793 12.3422 163.455C5.34762 178.937 13.4613 190.035 18.8238 191.527C35.4708 196.143 52.5841 187.843 61.7702 174.134C70.9564 160.424 69.8372 142.612 65.5939 134.451C65.5473 134.358 65.5006 134.265 65.4074 134.172C67.0861 133.192 68.8114 132.167 70.4901 131.187C73.8008 129.229 77.0649 127.41 79.8627 125.918C78.2773 130.255 77.1116 135.431 76.552 142.892C75.8525 151.658 79.4431 163.036 84.1527 167.512C86.2511 169.471 88.7225 169.517 90.3079 169.517C95.8103 169.517 98.2817 164.948 101.033 159.538C104.39 152.917 107.421 145.223 107.421 145.223C107.421 145.223 103.644 166.02 113.903 166.02C117.633 166.02 121.41 161.171 123.089 158.699V158.746C123.089 158.746 123.182 158.606 123.369 158.279C123.742 157.673 123.975 157.3 123.975 157.3V157.207C125.467 154.596 128.824 148.674 133.814 138.835C140.249 126.151 146.451 110.297 146.451 110.297C146.451 110.297 147.01 114.167 148.922 120.602C150.041 124.379 152.373 128.529 154.238 132.54C152.746 134.638 151.813 135.804 151.813 135.804C151.813 135.804 151.813 135.804 151.86 135.85C150.647 137.436 149.342 139.161 147.896 140.84C142.814 146.902 136.752 153.85 135.912 155.855C134.933 158.233 135.166 159.958 137.031 161.357C138.384 162.383 140.808 162.523 143.28 162.383C147.85 162.057 151.067 160.937 152.653 160.238C155.124 159.352 158.015 158 160.72 155.995C165.709 152.311 168.74 147.042 168.46 140.094C168.32 136.27 167.061 132.446 165.522 128.856C165.989 128.203 166.408 127.55 166.875 126.897C174.755 115.38 180.864 102.743 180.864 102.743C180.864 102.743 181.423 106.613 183.335 113.048C184.268 116.312 186.18 119.856 187.858 123.307C180.444 129.322 175.874 136.317 174.242 140.886C171.305 149.373 173.59 153.197 177.926 154.083C179.885 154.502 182.682 153.57 184.734 152.684C187.345 151.845 190.423 150.399 193.361 148.254C198.35 144.57 203.153 139.441 202.873 132.493C202.733 129.322 201.894 126.198 200.728 123.167C207.023 120.556 215.137 119.11 225.489 120.322C247.685 122.934 252.068 136.783 251.229 142.612C250.39 148.441 245.726 151.611 244.188 152.591C242.649 153.57 242.136 153.896 242.276 154.596C242.462 155.622 243.208 155.575 244.514 155.388C246.333 155.062 256.172 150.679 256.591 139.954C257.291 126.245 244.234 111.276 221.152 111.416ZM49.9261 169.144C42.5586 177.165 32.2999 180.196 27.87 177.631C23.1137 174.88 24.979 163.036 34.0252 154.549C39.5276 149.373 46.6154 144.57 51.325 141.632C52.3975 140.98 53.983 140.047 55.8948 138.881C56.2212 138.695 56.4077 138.602 56.4077 138.602C56.7808 138.368 57.1538 138.135 57.5269 137.902C60.8376 150.026 57.6667 160.704 49.9261 169.144ZM103.551 132.679C100.986 138.928 95.6238 154.922 92.3596 154.036C89.5618 153.29 87.8365 141.166 91.8001 129.182C93.8052 123.167 98.0485 115.986 100.52 113.188C104.53 108.712 108.96 107.219 110.033 109.038C111.385 111.416 105.136 128.763 103.551 132.679ZM147.803 153.85C146.73 154.409 145.705 154.782 145.238 154.502C144.912 154.316 145.705 153.57 145.705 153.57C145.705 153.57 151.254 147.601 153.445 144.897C154.704 143.311 156.196 141.446 157.782 139.348V139.954C157.782 147.088 150.881 151.891 147.803 153.85ZM181.936 146.062C181.144 145.503 181.284 143.638 183.941 137.809C184.967 135.524 187.392 131.7 191.542 128.016C192.008 129.509 192.335 130.954 192.288 132.306C192.242 141.306 185.807 144.663 181.936 146.062Z" fill="#CD6799"/>
</g>
<defs>
<clipPath id="clip0_174_532">
<rect width="256" height="192" fill="white" transform="translate(0.871094 0.902344)"/>
</clipPath>
</defs>
</svg>
