<svg width="220" height="133" viewBox="0 0 220 133" fill="none" xmlns="http://www.w3.org/2000/svg">
<g clip-path="url(#clip0_277_278)">
<path d="M110 0C80.7812 0 62.7344 14.6818 55 44.0455C66.1719 29.3636 79.0625 24.1818 93.6719 27.6364C102.266 29.3636 107.422 35.4091 114.297 42.3182C125.469 53.5455 137.5 66.5 165 66.5C194.219 66.5 212.266 51.8182 220 22.4545C208.828 37.1364 195.938 42.3182 181.328 38.8636C172.734 36.2727 167.578 30.2273 160.703 23.3182C149.531 12.9545 137.5 0 110 0ZM55 66.5C25.7812 66.5 7.73438 81.1818 0 110.545C11.1719 95.8636 24.0625 90.6818 38.6719 94.1364C47.2656 95.8636 52.4219 101.909 59.2969 108.818C70.4688 120.045 82.5 133 110 133C139.219 133 157.266 118.318 165 88.0909C153.828 102.773 140.938 108.818 126.328 105.364C117.734 102.773 112.578 96.7273 105.703 89.8182C94.5312 79.4545 82.5 66.5 55 66.5Z" fill="url(#paint0_linear_277_278)"/>
</g>
<defs>
<linearGradient id="paint0_linear_277_278" x1="-616" y1="4256" x2="18454.5" y2="15180.2" gradientUnits="userSpaceOnUse">
<stop stop-color="#2298BD"/>
<stop offset="1" stop-color="#0ED7B5"/>
</linearGradient>
<clipPath id="clip0_277_278">
<rect width="220" height="133" fill="white"/>
</clipPath>
</defs>
</svg>
