<svg width="294" height="293" viewBox="0 0 294 293" fill="none" xmlns="http://www.w3.org/2000/svg">
<g clip-path="url(#clip0_174_504)">
<path d="M0 0H294V293H0" fill="#3178C6"/>
<path d="M133.793 162.523H170.543V139.06H67.7578V162.523H104.508V267.248H133.793V162.523ZM182.027 261.525C192.381 266.796 206.323 268.679 218.777 268.679C229.515 268.679 243.429 267.288 254.379 260.438C259.03 257.405 262.992 253.571 265.289 248.42C267.586 243.27 269.366 237.547 269.366 230.108C269.314 206.559 252.547 198.753 236.004 191.194C228.493 187.789 211.6 182.289 211.6 171.68C211.6 163.13 221.252 158.786 233.535 158.746C243.113 158.746 255.987 161.854 263.968 167.697V140.8C253.19 136.674 241.895 135.902 231.812 135.879C203.532 135.879 181.476 147.507 181.281 174.106C181.562 194.198 193.523 202.971 211.14 211.303C220.735 215.63 238.456 221.169 238.588 233.164C238.169 244.363 224.474 246.068 216.538 246.154C204.158 246.154 191.066 241.467 182.027 234.057V261.525Z" fill="white"/>
</g>
<defs>
<clipPath id="clip0_174_504">
<rect width="294" height="293" fill="white"/>
</clipPath>
</defs>
</svg>
